<?xml version="1.0" encoding="UTF-8"?>
<svg id="Calque_1" data-name="Calque 1" xmlns="http://www.w3.org/2000/svg" viewBox="0 0 841.89 595.28">
  <defs>
    <style>
      .cls-1 {
        fill: #fa0;
        font-family: BacktoBlackDemo, 'Back to Black Demo';
        font-size: 94.4px;
      }

      .cls-2 {
        stroke: #000;
        stroke-miterlimit: 10;
      }

      .cls-3 {
        font-family: Montserrat-Bold, Montserrat;
        font-size: 237.26px;
        font-weight: 700;
      }
    </style>
  </defs>
  <g>
    <g>
      <path class="cls-2" d="M201.89,292.89l11.91-6.59c15.14.88,27.33,8.47,35.95,22.35l.2-57.25,33.41-.04.46,42.92c20.04-13.84,49.08-11.88,61.47,6.62,4.33,6.47,6.61,16.12,6.63,24l.06,20.26.12,37.56-33.46.16-.33-52.37c-.02-3.44-2.18-10.01-4.29-12.42-4.57-5.23-14.82-4.95-20.74-2.08-4.53,2.19-9.52,9.58-9.56,16.17l-.29,50.46-33.04.23-1.22-20.49c-8.17,11.36-18.75,19.09-33.26,21.21-32.55,4.77-64.82-12.77-65.37-48.67,0,0,14.71-16.3,22.51-22.5,7.8-6.2,25.05-17.42,28.83-19.52ZM249.93,353.5l-.28-40.88-25.02,11.78c-4.86-7.58-11.67-12.62-19.84-12.44-6.93.15-15.07,4.36-18.19,11.73-2.99,7.1-2.65,16.71.73,23.48,3.69,7.37,11.72,10.74,19.46,10.4,6.94-.3,12.98-5.09,18.07-12.41l23.63,11.55c.26-.47,1.43-2.72,1.43-3.2Z"/>
      <path d="M457.83,343.16l-69.9.18c2.24,8.93,9.4,13.86,18.14,14.98,10.04,1.29,18.47-.85,27.16-7.82l17.43,18.1c-14.26,17.33-43.31,18.85-63.84,12.01-20.33-6.77-32.87-24.84-33.32-44.58s11.33-39.14,31.33-46.74c22.16-8.42,48.73-3.92,64.22,15.69l1.26-14.46,12.89-.26,1-8.54c1.97-16.83,14.07-29.49,31.39-31.49,10.57-1.22,20.05.01,30.65,3.93l-8.21,23.37-10.94-1.78c-2.09-.34-7.19,1.85-8.16,3.74-1.17,2.27-1.8,7.57-1.77,10.51l22.04.64.17,24.51-21.91.86v66.71s-33.47,0-33.47,0l-.25-66.19-7.94-.77,2.02,27.4ZM425.72,325.55c-.97-10.11-8.56-15.68-17.64-16.17-9.95-.53-19.33,4.58-20.49,16.1l38.13.07Z"/>
      <path d="M673.66,343.16l-69.9.18c2.24,8.93,9.4,13.86,18.14,14.98,10.04,1.29,18.47-.85,27.16-7.82l17.43,18.1c-14.26,17.33-43.31,18.85-63.84,12.01-20.33-6.77-32.87-24.84-33.32-44.58-.46-20.6,11.33-39.14,31.33-46.74,22.16-8.42,48.73-3.92,64.22,15.69,0,0,4.53,6.68,7.02,14.34,2.49,7.65,1.75,23.85,1.75,23.85ZM641.55,325.55c-.97-10.11-8.56-15.68-17.64-16.17-9.95-.53-19.33,4.58-20.49,16.1l38.13.07Z"/>
      <path d="M509.47,290.26h11.15l1-8.54c1.97-16.83,14.07-29.49,31.39-31.49,10.57-1.22,20.05.01,30.65,3.93l-8.21,23.37-10.94-1.78c-2.09-.34-7.19,1.85-8.16,3.74-1.17,2.27-1.8,7.57-1.77,10.51l22.04.64.17,24.51-21.91.86v66.71s-33.47,0-33.47,0l-.25-66.19-11.69-.77v-25.5Z"/>
    </g>
    <text class="cls-1" transform="translate(291.59 274.85)"><tspan x="0" y="0">Oui</tspan></text>
  </g>
  <text class="cls-3" transform="translate(683.67 406.78)"><tspan x="0" y="0">!</tspan></text>
  <path d="M209.24,256.59l.96-.96c16.26-16.3,26.85-29.66,14.97-53.32-6.11-12.17-18.28-16.9-30.28-11.77-20.04,8.58-36.03,24.45-47.51,47.17l-9.74,19.29c-1.96.4-4,.71-6.17,1.03-8.64,1.3-18.42,2.77-30.58,10.83-9.35,6.2-14.26,16.79-13.47,29.07.62,9.62,7.23,17.5,16.08,19.16,11.09,2.08,22.79-2.59,26.22-5.78,1.02-.94,1.48-1.94,1.39-2.96l12.93,28.31,2.37-2.88c24.68-29.97,53.98-45.82,54.27-45.97l22.08-11.58-14.6-18.38,1.09-1.27ZM215.6,274.73l-17.09,8.96c-.29.15-28.22,15-53.31,44.29l-10.17-22.28c-.83-1.82-5.29-4.29-6.59-4.37l-1.47-.06-1.44,2.47.46.77.4,3.54c-2.17,1.91-12.21,6.3-22.03,4.45-6.75-1.27-11.81-7.38-12.29-14.87-.68-10.57,3.48-19.64,11.4-24.89,11.29-7.49,20.54-8.88,28.69-10.1,8.71-1.31,16.94-2.55,24.44-11.23l5.66-6.54-16.07,5.54,5.35-10.59c10.97-21.71,26.17-36.85,45.18-44.99,9.74-4.17,19.27-.41,24.28,9.58,10.31,20.54,2.05,31.64-13.15,46.98l-2.08-.57c.38-1.11,1.54-3.08,2.36-4.47,2.34-4,5-8.52,3.66-12.19l-1.73-4.73-2.48,4.38c-5.94,10.48-15.05,16.64-24.7,23.17-3.47,2.35-7.06,4.78-10.54,7.45-2.82,2.16-5.08,5.04-7.26,7.82-4.32,5.5-8.39,10.69-16.87,11.74l-3.39.42,1.63,3c.8,1.48,2.26,2.39,4.1,2.55,5.91.56,16-6.84,18.03-9.39l8.33-10.47c.88-1.1,3.3-3.36,4.32-3.94l19.05-10.7,15.31,19.27Z"/>
</svg>