<?xml version="1.0" encoding="UTF-8"?>
<svg xmlns="http://www.w3.org/2000/svg" viewBox="80 180 680 240">
  <defs>
    <style>
      .cls-1 {
        stroke: #000;
        stroke-miterlimit: 10;
      }
      .cls-2 {
        fill: #fa0;
      }
    </style>
  </defs>
  <g>
    <g>
      <path class="cls-1" d="M201.89,292.89l11.91-6.59c15.14.88,27.33,8.47,35.95,22.35l.2-57.25,33.41-.04.46,42.92c20.04-13.84,49.08-11.88,61.47,6.62,4.33,6.47,6.61,16.12,6.63,24l.06,20.26.12,37.56-33.46.16-.33-52.37c-.02-3.44-2.18-10.01-4.29-12.42-4.57-5.23-14.82-4.95-20.74-2.08-4.53,2.19-9.52,9.58-9.56,16.17l-.29,50.46-33.04.23-1.22-20.49c-8.17,11.36-18.75,19.09-33.26,21.21-32.55,4.77-64.82-12.77-65.37-48.67,0,0,14.71-16.3,22.51-22.5,7.8-6.2,25.05-17.42,28.83-19.52ZM249.93,353.5l-.28-40.88-25.02,11.78c-4.86-7.58-11.67-12.62-19.84-12.44-6.93.15-15.07,4.36-18.19,11.73-2.99,7.1-2.65,16.71.73,23.48,3.69,7.37,11.72,10.74,19.46,10.4,6.94-.3,12.98-5.09,18.07-12.41l23.63,11.55c.26-.47,1.43-2.72,1.43-3.2Z"/>
      <path d="M457.83,343.16l-69.9.18c2.24,8.93,9.4,13.86,18.14,14.98,10.04,1.29,18.47-.85,27.16-7.82l17.43,18.1c-14.26,17.33-43.31,18.85-63.84,12.01-20.33-6.77-32.87-24.84-33.32-44.58s11.33-39.14,31.33-46.74c22.16-8.42,48.73-3.92,64.22,15.69l1.26-14.46,12.89-.26,1-8.54c1.97-16.83,14.07-29.49,31.39-31.49,10.57-1.22,20.05.01,30.65,3.93l-8.21,23.37-10.94-1.78c-2.09-.34-7.19,1.85-8.16,3.74-1.17,2.27-1.8,7.57-1.77,10.51l22.04.64.17,24.51-21.91.86v66.71s-33.47,0-33.47,0l-.25-66.19-7.94-.77,2.02,27.4ZM425.72,325.55c-.97-10.11-8.56-15.68-17.64-16.17-9.95-.53-19.33,4.58-20.49,16.1l38.13.07Z"/>
      <path d="M673.66,343.16l-69.9.18c2.24,8.93,9.4,13.86,18.14,14.98,10.04,1.29,18.47-.85,27.16-7.82l17.43,18.1c-14.26,17.33-43.31,18.85-63.84,12.01-20.33-6.77-32.87-24.84-33.32-44.58-.46-20.6,11.33-39.14,31.33-46.74,22.16-8.42,48.73-3.92,64.22,15.69,0,0,4.53,6.68,7.02,14.34,2.49,7.65,1.75,23.85,1.75,23.85ZM641.55,325.55c-.97-10.11-8.56-15.68-17.64-16.17-9.95-.53-19.33,4.58-20.49,16.1l38.13.07Z"/>
      <path d="M509.47,290.26h11.15l1-8.54c1.97-16.83,14.07-29.49,31.39-31.49,10.57-1.22,20.05.01,30.65,3.93l-8.21,23.37-10.94-1.78c-2.09-.34-7.19,1.85-8.16,3.74-1.17,2.27-1.8,7.57-1.77,10.51l22.04.64.17,24.51-21.91.86v66.71s-33.47,0-33.47,0l-.25-66.19-11.69-.77v-25.5Z"/>
    </g>
    <g>
      <path class="cls-2" d="M386.84,229.16c1.13,6.48.85,13.47-.85,20.96-.82,3.65-1.95,7.27-3.4,10.86-1.45,3.59-3.18,6.99-5.19,10.2-3.96,6.54-8.84,12.24-14.63,17.09-3.08,2.52-6.4,4.72-9.96,6.61-3.56,1.89-7.24,3.35-11.04,4.39-3.81,1.04-7.69,1.64-11.66,1.79-3.96.16-7.9-.21-11.8-1.09-3.59-.75-6.89-1.95-9.91-3.59-3.02-1.64-5.63-3.65-7.84-6.04-2.2-2.39-4.03-5.22-5.47-8.5-1.45-3.27-2.46-6.89-3.02-10.86-.5-3.9-.58-7.91-.24-12.04.34-4.12,1.08-8.29,2.22-12.51,1.2-4.09,2.77-8.15,4.72-12.18,1.95-4.03,4.25-7.87,6.89-11.52,2.71-3.71,5.6-7.06,8.69-10.05,3.08-2.99,6.32-5.55,9.72-7.69,1.95-1.26,4.07-2,6.37-2.22,2.3-.22,4.3-.11,6,.33,1.7.44,2.82,1.13,3.35,2.08.53.94.05,1.92-1.46,2.93-3.34,2.2-6.47,4.75-9.39,7.65-2.93,2.9-5.62,6.04-8.07,9.44-2.46,3.4-4.59,6.97-6.42,10.71-1.83,3.75-3.3,7.6-4.44,11.56-1.07,3.9-1.75,7.77-2.03,11.61s-.19,7.52.28,11.04c.47,3.53,1.32,6.8,2.55,9.82,1.23,3.02,2.82,5.63,4.77,7.83,2.96,3.33,6.34,5.6,10.15,6.8,3.81,1.2,7.72,1.56,11.75,1.09,4.03-.47,8.02-1.62,11.99-3.45,3.96-1.83,7.58-4.12,10.86-6.89,2.71-2.2,5.24-4.67,7.6-7.41,2.36-2.74,4.45-5.65,6.28-8.73,1.89-3.08,3.52-6.33,4.91-9.72,1.38-3.4,2.46-6.8,3.21-10.2s1.21-6.73,1.37-10.01c.16-3.27-.05-6.39-.61-9.35-.57-3.27-1.59-6.4-3.07-9.39-1.48-2.99-3.27-5.43-5.38-7.32-2.11-1.89-4.48-3.04-7.13-3.45-2.64-.41-5.47.27-8.5,2.03-3.02,1.7-5.82,3.96-8.4,6.8-2.58,2.83-4.66,5.89-6.23,9.16-1.45,3.21-2.42,6.56-2.93,10.05-.5,3.49-.47,6.91.09,10.24.19,1.39.47,2.69.85,3.92.38,1.23.85,2.46,1.42,3.68.57,1.23,1.23,2.49,1.98,3.78.75,1.29,1.64,2.72,2.64,4.29.5.82.6,1.59.28,2.31-.32.72-.91,1.34-1.79,1.84-.88.5-1.94.88-3.16,1.13-1.23.25-2.5.33-3.82.24-1.32-.09-2.6-.41-3.82-.94-1.23-.53-2.22-1.31-2.97-2.31-2.14-2.83-3.82-5.66-5.05-8.5-1.23-2.83-2.09-5.79-2.6-8.87-.57-3.46-.6-7.11-.09-10.95.31-2.01.72-3.98,1.23-5.9.5-1.92,1.2-3.79,2.08-5.62.88-1.82,1.9-3.6,3.07-5.33,1.16-1.73,2.47-3.38,3.92-4.96,2.77-2.96,5.82-5.41,9.16-7.36,3.15-1.76,6.39-2.97,9.72-3.63,3.33-.66,6.61-.71,9.82-.14,2.83.5,5.49,1.43,7.98,2.78,2.49,1.35,4.73,3.13,6.75,5.33,1.95,2.14,3.57,4.59,4.86,7.36,1.29,2.77,2.25,5.76,2.88,8.97Z"/>
      <path class="cls-2" d="M441.79,246.06c-.5,1.07-1.23,2.53-2.17,4.39-.94,1.86-2.06,3.84-3.35,5.95-1.29,2.11-2.69,4.23-4.2,6.37-1.51,2.14-3.07,4.09-4.67,5.85-1.6,1.76-3.23,3.21-4.86,4.34-1.64,1.13-3.21,1.7-4.72,1.7-1.26.06-2.35-.19-3.26-.76-.91-.57-1.65-1.37-2.22-2.41-.57-1.04-.94-2.3-1.13-3.78-.19-1.48-.19-3.07,0-4.77,0-.31.03-.61.09-.9.06-.28.12-.58.19-.9-1.2,1.76-2.44,3.45-3.73,5.05-1.29,1.6-2.6,3.04-3.92,4.29-1.32,1.26-2.64,2.27-3.96,3.02-1.32.75-2.58,1.13-3.78,1.13-1.26.06-2.34-.19-3.26-.76-.91-.57-1.65-1.37-2.22-2.41-.57-1.04-.94-2.3-1.13-3.78-.19-1.48-.19-3.07,0-4.77.25-2.08.74-4.28,1.46-6.61.72-2.33,1.56-4.66,2.5-6.99.94-2.33,1.9-4.58,2.88-6.75.97-2.17,1.82-4.14,2.55-5.9.72-1.76,1.23-3.24,1.51-4.44.28-1.19.2-2.01-.24-2.45-.44-.38-.24-.82.61-1.32.85-.5,1.9-.79,3.16-.85,1.26-.06,2.56.22,3.92.85,1.35.63,2.31,1.89,2.88,3.78.57,1.83.47,4.04-.28,6.66-.76,2.61-1.81,5.33-3.16,8.17-1.35,2.83-2.8,5.63-4.34,8.4-1.54,2.77-2.83,5.24-3.87,7.41-1.04,2.17-1.64,3.9-1.79,5.19-.16,1.29.49,1.87,1.93,1.75.76-.06,1.86-.85,3.3-2.36,1.45-1.51,2.97-3.38,4.58-5.62,1.6-2.23,3.18-4.59,4.72-7.08,1.54-2.49,2.82-4.7,3.82-6.66.94-2.2,1.87-4.31,2.79-6.32.91-2.01,1.7-3.85,2.36-5.52.66-1.67,1.12-3.07,1.37-4.2.25-1.13.16-1.89-.28-2.27-.44-.38-.24-.82.61-1.32.85-.5,1.9-.79,3.16-.85,1.26-.06,2.56.22,3.92.85,1.35.63,2.31,1.89,2.88,3.78.57,1.83.47,4.04-.28,6.66-.75,2.61-1.81,5.33-3.16,8.17-1.35,2.83-2.8,5.63-4.34,8.4-1.54,2.77-2.83,5.24-3.87,7.41-1.04,2.17-1.64,3.9-1.79,5.19-.16,1.29.49,1.87,1.94,1.75.57-.06,1.35-.57,2.36-1.51s2.11-2.16,3.3-3.63c1.19-1.48,2.42-3.13,3.68-4.96,1.26-1.82,2.45-3.65,3.59-5.47s2.14-3.56,3.02-5.19c.88-1.64,1.51-2.99,1.89-4.06.19-.5.5-.82.94-.94.44-.13.85-.13,1.23,0,.38.13.68.38.9.76.22.38.2.79-.05,1.23Z"/>
      <path class="cls-2" d="M461.23,250.45c-.94,1.86-2.06,3.84-3.35,5.95-1.29,2.11-2.69,4.23-4.2,6.37-1.51,2.14-3.07,4.09-4.67,5.85-1.6,1.76-3.23,3.21-4.86,4.34-1.64,1.13-3.21,1.7-4.72,1.7-1.26.06-2.34-.19-3.26-.76-.91-.57-1.65-1.37-2.22-2.41-.57-1.04-.94-2.3-1.13-3.78-.19-1.48-.19-3.07,0-4.77.25-2.08.74-4.28,1.46-6.61.72-2.33,1.56-4.66,2.5-6.99.94-2.33,1.9-4.58,2.88-6.75.97-2.17,1.82-4.14,2.55-5.9.72-1.76,1.23-3.24,1.51-4.44.28-1.19.2-2.01-.24-2.45-.44-.38-.24-.82.61-1.32.85-.5,1.9-.79,3.16-.85,1.26-.06,2.56.22,3.92.85,1.35.63,2.31,1.89,2.88,3.78.57,1.83.47,4.04-.28,6.66-.76,2.61-1.81,5.33-3.16,8.17-1.35,2.83-2.8,5.63-4.34,8.4-1.54,2.77-2.83,5.24-3.87,7.41-1.04,2.17-1.64,3.9-1.79,5.19-.16,1.29.49,1.87,1.93,1.75.63-.06,1.43-.57,2.41-1.51.98-.94,2.06-2.16,3.26-3.63,1.2-1.48,2.42-3.13,3.68-4.96,1.26-1.82,2.46-3.65,3.59-5.47s2.14-3.56,3.02-5.19c.88-1.64,1.51-2.99,1.89-4.06.19-.5.5-.82.94-.94.44-.13.85-.13,1.23,0,.38.13.68.38.9.76.22.38.2.79-.05,1.23ZM457.13,221.04c.35-.76.72-1.51,1.13-2.27.41-.76.79-1.48,1.13-2.17.35-.69.52-1.23.52-1.6,0-1.57-.47-2.86-1.42-3.87-.94-1.01-2-1.76-3.16-2.27-1.17-.5-2.22-.75-3.16-.75s-1.42.22-1.42.66c0,.38-.19.91-.57,1.6-.38.69-.8,1.45-1.27,2.27-.47.82-.9,1.59-1.27,2.31-.38.72-.57,1.31-.57,1.75,0,1.57.5,2.88,1.51,3.92,1.01,1.04,2.09,1.79,3.26,2.27,1.16.47,2.25.71,3.26.71s1.51-.25,1.51-.76c0-.44.17-1.04.52-1.79Z"/>
    </g>
  </g>
  <path d="M695.29,387.09c0-12.1,9.49-21.12,22.78-21.12s22.78,9.02,22.78,21.12-9.49,21.59-22.78,21.59-22.78-9.73-22.78-21.59ZM696.01,240.7h44.13l-7.36,108.43h-29.42l-7.35-108.43Z"/>
  <path d="M209.24,256.59l.96-.96c16.26-16.3,26.85-29.66,14.97-53.32-6.11-12.17-18.28-16.9-30.28-11.77-20.04,8.58-36.03,24.45-47.51,47.17l-9.74,19.29c-1.96.4-4,.71-6.17,1.03-8.64,1.3-18.42,2.77-30.58,10.83-9.35,6.2-14.26,16.79-13.47,29.07.62,9.62,7.23,17.5,16.08,19.16,11.09,2.08,22.79-2.59,26.22-5.78,1.02-.94,1.48-1.94,1.39-2.96l12.93,28.31,2.37-2.88c24.68-29.97,53.98-45.82,54.27-45.97l22.08-11.58-14.6-18.38,1.09-1.27ZM215.6,274.73l-17.09,8.96c-.29.15-28.22,15-53.31,44.29l-10.17-22.28c-.83-1.82-5.29-4.29-6.59-4.37l-1.47-.06-1.44,2.47.46.77.4,3.54c-2.17,1.91-12.21,6.3-22.03,4.45-6.75-1.27-11.81-7.38-12.29-14.87-.68-10.57,3.48-19.64,11.4-24.89,11.29-7.49,20.54-8.88,28.69-10.1,8.71-1.31,16.94-2.55,24.44-11.23l5.66-6.54-16.07,5.54,5.35-10.59c10.97-21.71,26.17-36.85,45.18-44.99,9.74-4.17,19.27-.41,24.28,9.58,10.31,20.54,2.05,31.64-13.15,46.98l-2.08-.57c.38-1.11,1.54-3.08,2.36-4.47,2.34-4,5-8.52,3.66-12.19l-1.73-4.73-2.48,4.38c-5.94,10.48-15.05,16.64-24.7,23.17-3.47,2.35-7.06,4.78-10.54,7.45-2.82,2.16-5.08,5.04-7.26,7.82-4.32,5.5-8.39,10.69-16.87,11.74l-3.39.42,1.63,3c.8,1.48,2.26,2.39,4.1,2.55,5.91.56,16-6.84,18.03-9.39l8.33-10.47c.88-1.1,3.3-3.36,4.32-3.94l19.05-10.7,15.31,19.27Z"/>
</svg>
