<?xml version="1.0" encoding="UTF-8"?>
<svg id="Calque_1" data-name="Calque 1" xmlns="http://www.w3.org/2000/svg" viewBox="0 0 841.89 595.28">
  <defs>
    <style>
      .cls-1 {
        font-family: BacktoBlackDemo, 'Back to Black Demo';
        font-size: 94.4px;
      }

      .cls-1, .cls-2 {
        fill: #fa0;
      }

      .cls-2 {
        font-family: Montserrat-Bold, Montserrat;
        font-size: 237.26px;
        font-weight: 700;
      }
    </style>
  </defs>
  <g>
    <g>
      <path d="M195.76,280.94l11.91-6.59c15.14.88,27.33,8.47,35.95,22.35l.2-57.25,33.41-.04.46,42.92c20.04-13.84,49.08-11.88,61.47,6.62,4.33,6.47,6.61,16.12,6.63,24l.06,20.26.12,37.56-33.46.16-.33-52.37c-.02-3.44-2.18-10.01-4.29-12.42-4.57-5.23-14.82-4.95-20.74-2.08-4.53,2.19-9.52,9.58-9.56,16.17l-.29,50.46-33.04.23-1.22-20.49c-8.17,11.36-18.75,19.09-33.26,21.21-32.55,4.77-64.82-12.77-65.37-48.67,0,0,14.71-16.3,22.51-22.5,7.8-6.2,25.05-17.42,28.83-19.52ZM138.48,325.39l-11.7-25.63c-.46-1-5.04-3.55-4.66-2.91l.55,4.79c.21,1.86-12.39,8.6-24.86,6.25-8.25-1.55-13.67-8.95-14.19-17.01-.7-10.94,3.4-20.99,12.43-26.98,24.05-15.94,39.13-5.25,52.66-20.91l-13.32,4.59,7.94-15.72c10.21-20.2,25.26-37.05,46.35-46.08,11.41-4.89,21.92,0,27.28,10.67,11.23,22.37,1.22,34.83-14.54,50.63l-4.04-1.1c-4.91-1.34,7.07-12.53,5.1-17.93-8.43,14.86-22.81,21.33-35.84,31.32-7.82,5.99-11.17,18.28-25.26,20.03,2.59,4.77,16.01-4.35,18.27-7.18l8.33-10.47c1-1.25,3.64-3.75,5-4.52l20.78-11.67,18.3,23.03-19.58,10.27c-3.02,1.59-31.09,17.53-54.98,46.55ZM243.81,341.55l-.28-40.88-25.02,11.78c-4.86-7.58-11.67-12.62-19.84-12.44-6.93.15-15.07,4.36-18.19,11.73-2.99,7.1-2.65,16.71.73,23.48,3.69,7.37,11.72,10.74,19.46,10.4,6.94-.3,12.98-5.09,18.07-12.41l23.63,11.55c.26-.47,1.43-2.72,1.43-3.2Z"/>
      <path d="M451.71,331.21l-69.9.18c2.24,8.93,9.4,13.86,18.14,14.98,10.04,1.29,18.47-.85,27.16-7.82l17.43,18.1c-14.26,17.33-43.31,18.85-63.84,12.01-20.33-6.77-32.87-24.84-33.32-44.58s11.33-39.14,31.33-46.74c22.16-8.42,48.73-3.92,64.22,15.69l1.26-14.46,12.89-.26,1-8.54c1.97-16.83,14.07-29.49,31.39-31.49,10.57-1.22,20.05.01,30.65,3.93l-8.21,23.37-10.94-1.78c-2.09-.34-7.19,1.85-8.16,3.74-1.17,2.27-1.8,7.57-1.77,10.51l22.04.64.17,24.51-21.91.86v66.71s-33.47,0-33.47,0l-.25-66.19-7.94-.77,2.02,27.4ZM419.6,313.6c-.97-10.11-8.56-15.68-17.64-16.17-9.95-.53-19.33,4.58-20.49,16.1l38.13.07Z"/>
      <path d="M667.53,331.21l-69.9.18c2.24,8.93,9.4,13.86,18.14,14.98,10.04,1.29,18.47-.85,27.16-7.82l17.43,18.1c-14.26,17.33-43.31,18.85-63.84,12.01-20.33-6.77-32.87-24.84-33.32-44.58-.46-20.6,11.33-39.14,31.33-46.74,22.16-8.42,48.73-3.92,64.22,15.69,0,0,4.53,6.68,7.02,14.34,2.49,7.65,1.75,23.85,1.75,23.85ZM635.42,313.6c-.97-10.11-8.56-15.68-17.64-16.17-9.95-.53-19.33,4.58-20.49,16.1l38.13.07Z"/>
      <path d="M503.34,278.31h11.15l1-8.54c1.97-16.83,14.07-29.49,31.39-31.49,10.57-1.22,20.05.01,30.65,3.93l-8.21,23.37-10.94-1.78c-2.09-.34-7.19,1.85-8.16,3.74-1.17,2.27-1.8,7.57-1.77,10.51l22.04.64.17,24.51-21.91.86v66.71s-33.47,0-33.47,0l-.25-66.19-11.69-.77v-25.5Z"/>
    </g>
    <text class="cls-1" transform="translate(285.47 262.9)"><tspan x="0" y="0">Oui</tspan></text>
  </g>
  <text class="cls-2" transform="translate(677.54 394.83)"><tspan x="0" y="0">!</tspan></text>
</svg>